IKResults
version=1
nRows=9
nColumns=38
inDegrees=yes

Units are S.I. units (second, meters, Newtons, ...)
If the header above contains a line with 'inDegrees', this indicates whether rotational values are in degrees (yes) or radians (no).

endheader
time	sternoclavicular_r2	sternoclavicular_r3	unrotscap_r3	unrotscap_r2	acromioclavicular_r2	acromioclavicular_r3	acromioclavicular_r1	unrothum_r1	unrothum_r3	unrothum_r2	elv_angle	shoulder_elv	shoulder1_r2	shoulder_rot	elbow_flexion	pro_sup	deviation	flexion	proximal_distal_r1	proximal_distal_r3	cmc_flexion	cmc_abduction	mp_flexion	ip_flexion	2mcp_flexion	2mcp_abduction	2pm_flexion	2md_flexion	APLpt_tx	APLpt_ty	APLpt_tz	FPLpt_tx	FPLpt_ty	FPLpt_tz	FPLpt2_tx	FPLpt2_ty	FPLpt2_tz
      3.63000000	     -5.93186775	      2.51245921	     -2.51245921	      5.93186775	     -1.20108256	      9.70672673	      4.36310686	     -4.36310686	     -9.70672673	      1.20108256	     15.08346168	     24.51179528	    -15.08346168	      2.19064113	     81.70983532	     51.83589548	      0.15375099	      0.17926531	     10.84682251	      5.13557291	      3.36700001	      6.30629251	    -27.65299999	    -34.18399999	     -2.10406052	      7.65299997	     26.93900001	     34.89800000	     -0.00021032	     -0.00008413	     -0.00042065	     -0.00026922	     -0.00080765	     -0.00045430	      0.00004241	     -0.00007788	     -0.00009345
      3.64000000	     -5.93115216	      2.51215612	     -2.51215612	      5.93115216	     -1.20093766	      9.70555576	      4.36258052	     -4.36258052	     -9.70555576	      1.20093766	     15.15195166	     24.50883828	    -15.15195166	      2.21629015	     81.68327998	     51.60303869	      0.15200232	      0.17694731	     10.73592151	      5.06916699	      3.36700001	      6.83448491	    -27.65299999	    -34.18399999	     -2.26020205	      7.65299997	     26.93900001	     34.89800000	     -0.00020726	     -0.00008291	     -0.00041453	     -0.00026530	     -0.00079589	     -0.00044769	      0.00004241	     -0.00007788	     -0.00009345
      3.65000000	     -5.92665488	      2.51025128	     -2.51025128	      5.92665488	     -1.20002706	      9.69819654	      4.35927260	     -4.35927260	     -9.69819654	      1.20002706	     15.21669278	     24.49025452	    -15.21669278	      2.13443000	     81.66114306	     51.64399315	      0.15035522	      0.17893637	     10.63125157	      5.12614947	      3.36700001	      6.94295850	    -27.65299999	    -34.18399999	     -2.24500225	      7.65299997	     26.93900001	     34.89800000	     -0.00020988	     -0.00008395	     -0.00041976	     -0.00026865	     -0.00080594	     -0.00045334	      0.00004241	     -0.00007788	     -0.00009345
      3.66000000	     -5.91592770	      2.50570776	     -2.50570776	      5.91592770	     -1.19785502	      9.68064291	      4.35138237	     -4.35138237	     -9.68064291	      1.19785502	     15.21568135	     24.44592743	    -15.21568135	      2.26139734	     81.66330379	     51.64981424	      0.15032651	      0.17918887	     10.62937335	      5.13338286	      3.36700001	      6.93948923	    -27.65299999	    -34.18399999	     -2.24371552	      7.65299997	     26.93900001	     34.89800000	     -0.00021022	     -0.00008409	     -0.00042045	     -0.00026909	     -0.00080726	     -0.00045409	      0.00004241	     -0.00007788	     -0.00009345
      3.67000000	     -5.92067099	      2.50771679	     -2.50771679	      5.92067099	     -1.19881544	      9.68840469	      4.35487123	     -4.35487123	     -9.68840469	      1.19881544	     14.93627159	     24.46552776	    -14.93627159	      2.03952082	     81.63438083	     50.70610799	      0.14854267	      0.18003903	     10.51567083	      5.15773840	      3.36700001	      6.95051785	    -27.65299999	    -34.18399999	     -1.77198964	      7.65299997	     26.93900001	     34.89800000	     -0.00021135	     -0.00008454	     -0.00042270	     -0.00027053	     -0.00081158	     -0.00045652	      0.00004241	     -0.00007788	     -0.00009345
      3.68000000	     -5.92777617	      2.51072621	     -2.51072621	      5.92777617	     -1.20025409	      9.70003139	      4.36009735	     -4.36009735	     -9.70003139	      1.20025409	     15.06237406	     24.49488794	    -15.06237406	      2.09395107	     81.63785824	     50.76860665	      0.15185985	      0.18354553	     10.72687469	      5.25819204	      3.36700001	      7.47206792	    -27.65299999	    -34.18399999	     -2.04384437	      7.65299997	     26.93900001	     34.89800000	     -0.00021600	     -0.00008640	     -0.00043201	     -0.00027649	     -0.00082946	     -0.00046657	      0.00004241	     -0.00007788	     -0.00009345
      3.69000000	     -5.93653609	      2.51443650	     -2.51443650	      5.93653609	     -1.20202780	      9.71436586	      4.36654060	     -4.36654060	     -9.71436586	      1.20202780	     15.13170270	     24.53108590	    -15.13170270	      2.14918330	     81.70432857	     51.36851612	      0.15429787	      0.18229577	     10.88147157	      5.22238920	      3.36700001	      7.36678822	    -27.65299999	    -34.18399999	     -1.98217518	      7.65299997	     26.93900001	     34.89800000	     -0.00021434	     -0.00008574	     -0.00042869	     -0.00027436	     -0.00082308	     -0.00046298	      0.00004241	     -0.00007788	     -0.00009345
      3.70000000	     -5.93972960	      2.51578912	     -2.51578912	      5.93972960	     -1.20267442	      9.71959162	      4.36888954	     -4.36888954	     -9.71959162	      1.20267442	     15.11097171	     24.54428218	    -15.11097171	      2.10076853	     81.69711716	     51.36373768	      0.15431210	      0.18233209	     10.88234588	      5.22342950	      3.36700001	      7.36819354	    -27.65299999	    -34.18399999	     -1.98347055	      7.65299997	     26.93900001	     34.89800000	     -0.00021439	     -0.00008576	     -0.00042878	     -0.00027442	     -0.00082327	     -0.00046309	      0.00004241	     -0.00007788	     -0.00009345
      3.71000000	     -5.94149904	      2.51653857	     -2.51653857	      5.94149904	     -1.20303270	      9.72248707	      4.37019103	     -4.37019103	     -9.72248707	      1.20303270	     15.03076917	     24.55159388	    -15.03076917	      2.15702428	     81.73712734	     51.40465164	      0.15043932	      0.17903699	     10.63655544	      5.12903191	      3.36700001	      7.05675966	    -27.65299999	    -34.18399999	     -1.75600693	      7.65299997	     26.93900001	     34.89800000	     -0.00021002	     -0.00008401	     -0.00042005	     -0.00026883	     -0.00080649	     -0.00045365	      0.00004241	     -0.00007788	     -0.00009345
